<svg xmlns="http://www.w3.org/2000/svg" xmlns:xlink="http://www.w3.org/1999/xlink" width="3884" height="332pt" viewBox="0 0 2913.45 332"><g id="graph0" class="graph" transform="scale(1 1) rotate(0) translate(4 328)"><title>example1</title><polygon fill="#fff" stroke="transparent" points="-4 4 -4 -328 2909.448 -328 2909.448 4 -4 4"/><g id="node1" class="node"><title>mill.scalalib.ZincWorkerModule.compilerInterfaceClasspath</title><ellipse cx="616.96" cy="-162" fill="none" stroke="#000" stroke-dasharray="1 5" rx="246.983" ry="18"/><text x="616.96" y="-157.8" fill="#000" font-family="Times,serif" font-size="14" text-anchor="middle">mill.scalalib.ZincWorkerModule.compilerInterfaceClasspath</text></g><g id="node2" class="node"><title>mill.scalalib.ZincWorkerModule.classpath</title><ellipse cx="175.96" cy="-162" fill="none" stroke="#000" stroke-dasharray="1 5" rx="175.919" ry="18"/><text x="175.96" y="-157.8" fill="#000" font-family="Times,serif" font-size="14" text-anchor="middle">mill.scalalib.ZincWorkerModule.classpath</text></g><g id="node3" class="node"><title>mill.scalalib.ZincWorkerModule.worker</title><ellipse cx="616.96" cy="-234" fill="none" stroke="#000" stroke-dasharray="1 5" rx="167.817" ry="18"/><text x="616.96" y="-229.8" fill="#000" font-family="Times,serif" font-size="14" text-anchor="middle">mill.scalalib.ZincWorkerModule.worker</text></g><g id="edge1" class="edge"><title>mill.scalalib.ZincWorkerModule.worker-&gt;mill.scalalib.ZincWorkerModule.compilerInterfaceClasspath</title><path fill="none" stroke="#000" d="M616.9597,-215.8314C616.9597,-208.131 616.9597,-198.9743 616.9597,-190.4166"/><polygon fill="#000" stroke="#000" points="620.46 -190.413 616.96 -180.413 613.46 -190.413 620.46 -190.413"/></g><g id="edge2" class="edge"><title>mill.scalalib.ZincWorkerModule.worker-&gt;mill.scalalib.ZincWorkerModule.classpath</title><path fill="none" stroke="#000" d="M524.7802,-218.9503C453.277,-207.2763 354.1628,-191.0944 279.8533,-178.9622"/><polygon fill="#000" stroke="#000" points="279.971 -175.435 269.538 -177.278 278.843 -182.344 279.971 -175.435"/></g><g id="node4" class="node"><title>foo.upstreamCompileOutput</title><ellipse cx="1541.96" cy="-234" fill="none" stroke="#000" stroke-dasharray="1 5" rx="121.613" ry="18"/><text x="1541.96" y="-229.8" fill="#000" font-family="Times,serif" font-size="14" text-anchor="middle">foo.upstreamCompileOutput</text></g><g id="node5" class="node"><title>foo.sources</title><ellipse cx="863.96" cy="-90" fill="none" stroke="#000" stroke-dasharray="1 5" rx="55.059" ry="18"/><text x="863.96" y="-85.8" fill="#000" font-family="Times,serif" font-size="14" text-anchor="middle">foo.sources</text></g><g id="node6" class="node"><title>foo.generatedSources</title><ellipse cx="1031.96" cy="-90" fill="none" stroke="#000" stroke-dasharray="1 5" rx="94.345" ry="18"/><text x="1031.96" y="-85.8" fill="#000" font-family="Times,serif" font-size="14" text-anchor="middle">foo.generatedSources</text></g><g id="node7" class="node"><title>foo.allSources</title><ellipse cx="947.96" cy="-162" fill="none" stroke="#000" stroke-dasharray="1 5" rx="66.591" ry="18"/><text x="947.96" y="-157.8" fill="#000" font-family="Times,serif" font-size="14" text-anchor="middle">foo.allSources</text></g><g id="edge3" class="edge"><title>foo.allSources-&gt;foo.sources</title><path fill="none" stroke="#000" d="M927.6257,-144.5708C916.8162,-135.3055 903.37,-123.7802 891.6238,-113.7121"/><polygon fill="#000" stroke="#000" points="893.687 -110.871 883.817 -107.02 889.131 -116.186 893.687 -110.871"/></g><g id="edge4" class="edge"><title>foo.allSources-&gt;foo.generatedSources</title><path fill="none" stroke="#000" d="M968.2938,-144.5708C978.8666,-135.5084 991.9618,-124.2839 1003.5216,-114.3755"/><polygon fill="#000" stroke="#000" points="1005.915 -116.934 1011.229 -107.769 1001.359 -111.619 1005.915 -116.934"/></g><g id="node8" class="node"><title>foo.allSourceFiles</title><ellipse cx="1762.96" cy="-234" fill="none" stroke="#000" stroke-dasharray="1 5" rx="81.636" ry="18"/><text x="1762.96" y="-229.8" fill="#000" font-family="Times,serif" font-size="14" text-anchor="middle">foo.allSourceFiles</text></g><g id="edge5" class="edge"><title>foo.allSourceFiles-&gt;foo.allSources</title><path fill="none" stroke="#000" d="M1705.0619,-221.1633C1694.428,-219.1644 1683.3926,-217.3258 1672.9597,-216 1386.3767,-179.5805 1309.8582,-221.452 1023.9597,-180 1018.0281,-179.14 1011.8789,-178.0403 1005.7642,-176.8093"/><polygon fill="#000" stroke="#000" points="1006.061 -173.294 995.551 -174.633 1004.602 -180.14 1006.061 -173.294"/></g><g id="node9" class="node"><title>foo.transitiveLocalClasspath</title><ellipse cx="1352.96" cy="-162" fill="none" stroke="#000" stroke-dasharray="1 5" rx="121.584" ry="18"/><text x="1352.96" y="-157.8" fill="#000" font-family="Times,serif" font-size="14" text-anchor="middle">foo.transitiveLocalClasspath</text></g><g id="node10" class="node"><title>foo.resources</title><ellipse cx="1555.96" cy="-162" fill="none" stroke="#000" stroke-dasharray="1 5" rx="62.562" ry="18"/><text x="1555.96" y="-157.8" fill="#000" font-family="Times,serif" font-size="14" text-anchor="middle">foo.resources</text></g><g id="node11" class="node"><title>foo.unmanagedClasspath</title><ellipse cx="1744.96" cy="-162" fill="none" stroke="#000" stroke-dasharray="1 5" rx="108.273" ry="18"/><text x="1744.96" y="-157.8" fill="#000" font-family="Times,serif" font-size="14" text-anchor="middle">foo.unmanagedClasspath</text></g><g id="node12" class="node"><title>foo.scalaVersion</title><ellipse cx="2320.96" cy="-18" fill="none" stroke="#000" stroke-dasharray="1 5" rx="76.382" ry="18"/><text x="2320.96" y="-13.8" fill="#000" font-family="Times,serif" font-size="14" text-anchor="middle">foo.scalaVersion</text></g><g id="node13" class="node"><title>foo.platformSuffix</title><ellipse cx="2432.96" cy="-162" fill="none" stroke="#000" stroke-dasharray="1 5" rx="83.928" ry="18"/><text x="2432.96" y="-157.8" fill="#000" font-family="Times,serif" font-size="14" text-anchor="middle">foo.platformSuffix</text></g><g id="node14" class="node"><title>foo.compileIvyDeps</title><ellipse cx="1122.96" cy="-162" fill="none" stroke="#000" stroke-dasharray="1 5" rx="90.293" ry="18"/><text x="1122.96" y="-157.8" fill="#000" font-family="Times,serif" font-size="14" text-anchor="middle">foo.compileIvyDeps</text></g><g id="node15" class="node"><title>foo.scalaOrganization</title><ellipse cx="2320.96" cy="-90" fill="none" stroke="#000" stroke-dasharray="1 5" rx="96.066" ry="18"/><text x="2320.96" y="-85.8" fill="#000" font-family="Times,serif" font-size="14" text-anchor="middle">foo.scalaOrganization</text></g><g id="edge6" class="edge"><title>foo.scalaOrganization-&gt;foo.scalaVersion</title><path fill="none" stroke="#000" d="M2320.9597,-71.8314C2320.9597,-64.131 2320.9597,-54.9743 2320.9597,-46.4166"/><polygon fill="#000" stroke="#000" points="2324.46 -46.413 2320.96 -36.413 2317.46 -46.413 2324.46 -46.413"/></g><g id="node16" class="node"><title>foo.scalaLibraryIvyDeps</title><ellipse cx="2185.96" cy="-162" fill="none" stroke="#000" stroke-dasharray="1 5" rx="107.085" ry="18"/><text x="2185.96" y="-157.8" fill="#000" font-family="Times,serif" font-size="14" text-anchor="middle">foo.scalaLibraryIvyDeps</text></g><g id="edge7" class="edge"><title>foo.scalaLibraryIvyDeps-&gt;foo.scalaOrganization</title><path fill="none" stroke="#000" d="M2218.2956,-144.7542C2236.7468,-134.9136 2260.0616,-122.479 2279.808,-111.9476"/><polygon fill="#000" stroke="#000" points="2281.711 -114.899 2288.888 -107.105 2278.417 -108.723 2281.711 -114.899"/></g><g id="node17" class="node"><title>foo.ivyDeps</title><ellipse cx="1965.96" cy="-90" fill="none" stroke="#000" stroke-dasharray="1 5" rx="58.51" ry="18"/><text x="1965.96" y="-85.8" fill="#000" font-family="Times,serif" font-size="14" text-anchor="middle">foo.ivyDeps</text></g><g id="node18" class="node"><title>foo.transitiveIvyDeps</title><ellipse cx="1965.96" cy="-162" fill="none" stroke="#000" stroke-dasharray="1 5" rx="94.944" ry="18"/><text x="1965.96" y="-157.8" fill="#000" font-family="Times,serif" font-size="14" text-anchor="middle">foo.transitiveIvyDeps</text></g><g id="edge8" class="edge"><title>foo.transitiveIvyDeps-&gt;foo.ivyDeps</title><path fill="none" stroke="#000" d="M1965.9597,-143.8314C1965.9597,-136.131 1965.9597,-126.9743 1965.9597,-118.4166"/><polygon fill="#000" stroke="#000" points="1969.46 -118.413 1965.96 -108.413 1962.46 -118.413 1969.46 -118.413"/></g><g id="node19" class="node"><title>foo.compileClasspath</title><ellipse cx="1957.96" cy="-234" fill="none" stroke="#000" stroke-dasharray="1 5" rx="94.963" ry="18"/><text x="1957.96" y="-229.8" fill="#000" font-family="Times,serif" font-size="14" text-anchor="middle">foo.compileClasspath</text></g><g id="edge13" class="edge"><title>foo.compileClasspath-&gt;foo.transitiveLocalClasspath</title><path fill="none" stroke="#000" d="M1889.5421,-221.4136C1877.7003,-219.4486 1865.4909,-217.5567 1853.9597,-216 1690.224,-193.8962 1648.0556,-199.2492 1483.9597,-180 1473.224,-178.7406 1462.0057,-177.3356 1450.8456,-175.8811"/><polygon fill="#000" stroke="#000" points="1451 -172.371 1440.628 -174.534 1450.085 -179.311 1451 -172.371"/></g><g id="edge14" class="edge"><title>foo.compileClasspath-&gt;foo.resources</title><path fill="none" stroke="#000" d="M1888.0535,-221.7684C1876.6627,-219.8135 1864.9862,-217.8323 1853.9597,-216 1753.6249,-199.3267 1727.6132,-200.3535 1627.9597,-180 1622.8825,-178.963 1617.6235,-177.8076 1612.3651,-176.5965"/><polygon fill="#000" stroke="#000" points="1612.839 -173.112 1602.302 -174.215 1611.227 -179.924 1612.839 -173.112"/></g><g id="edge15" class="edge"><title>foo.compileClasspath-&gt;foo.unmanagedClasspath</title><path fill="none" stroke="#000" d="M1911.4792,-218.2883C1879.5044,-207.4799 1836.8125,-193.0488 1802.6617,-181.5049"/><polygon fill="#000" stroke="#000" points="1803.411 -178.064 1792.817 -178.177 1801.169 -184.695 1803.411 -178.064"/></g><g id="edge9" class="edge"><title>foo.compileClasspath-&gt;foo.platformSuffix</title><path fill="none" stroke="#000" d="M2027.5649,-221.6872C2039.0468,-219.7325 2050.8308,-217.7727 2061.9597,-216 2161.566,-200.1342 2276.5234,-183.69 2351.7506,-173.181"/><polygon fill="#000" stroke="#000" points="2352.675 -176.586 2362.096 -171.738 2351.709 -169.653 2352.675 -176.586"/></g><g id="edge10" class="edge"><title>foo.compileClasspath-&gt;foo.compileIvyDeps</title><path fill="none" stroke="#000" d="M1890.7094,-221.2029C1878.5144,-219.2128 1865.8839,-217.367 1853.9597,-216 1574.4462,-183.9571 1501.335,-213.227 1221.9597,-180 1213.7307,-179.0213 1205.1521,-177.7872 1196.6359,-176.4261"/><polygon fill="#000" stroke="#000" points="1197.13 -172.96 1186.692 -174.778 1195.985 -179.866 1197.13 -172.96"/></g><g id="edge11" class="edge"><title>foo.compileClasspath-&gt;foo.scalaLibraryIvyDeps</title><path fill="none" stroke="#000" d="M2006.8715,-218.5542C2041.7045,-207.5543 2088.73,-192.7041 2125.8524,-180.9813"/><polygon fill="#000" stroke="#000" points="2127.07 -184.267 2135.551 -177.918 2124.962 -177.592 2127.07 -184.267"/></g><g id="edge12" class="edge"><title>foo.compileClasspath-&gt;foo.transitiveIvyDeps</title><path fill="none" stroke="#000" d="M1959.9785,-215.8314C1960.8341,-208.131 1961.8515,-198.9743 1962.8023,-190.4166"/><polygon fill="#000" stroke="#000" points="1966.288 -190.739 1963.914 -180.413 1959.331 -189.966 1966.288 -190.739"/></g><g id="node20" class="node"><title>foo.javacOptions</title><ellipse cx="2648.96" cy="-234" fill="none" stroke="#000" stroke-dasharray="1 5" rx="77.05" ry="18"/><text x="2648.96" y="-229.8" fill="#000" font-family="Times,serif" font-size="14" text-anchor="middle">foo.javacOptions</text></g><g id="node21" class="node"><title>foo.scalacOptions</title><ellipse cx="2824.96" cy="-234" fill="none" stroke="#000" stroke-dasharray="1 5" rx="80.477" ry="18"/><text x="2824.96" y="-229.8" fill="#000" font-family="Times,serif" font-size="14" text-anchor="middle">foo.scalacOptions</text></g><g id="node22" class="node"><title>foo.scalaCompilerClasspath</title><ellipse cx="2190.96" cy="-234" fill="none" stroke="#000" stroke-dasharray="1 5" rx="119.798" ry="18"/><text x="2190.96" y="-229.8" fill="#000" font-family="Times,serif" font-size="14" text-anchor="middle">foo.scalaCompilerClasspath</text></g><g id="edge16" class="edge"><title>foo.scalaCompilerClasspath-&gt;foo.platformSuffix</title><path fill="none" stroke="#000" d="M2244.9681,-217.9314C2283.2371,-206.5456 2334.561,-191.2757 2373.9129,-179.5677"/><polygon fill="#000" stroke="#000" points="2375.058 -182.879 2383.644 -176.672 2373.061 -176.169 2375.058 -182.879"/></g><g id="edge17" class="edge"><title>foo.scalaCompilerClasspath-&gt;foo.scalaOrganization</title><path fill="none" stroke="#000" d="M2247.3776,-218.0726C2267.35,-209.771 2288.2415,-197.5653 2301.9597,-180 2315.6441,-162.4781 2320.0638,-137.3969 2321.2485,-118.1602"/><polygon fill="#000" stroke="#000" points="2324.746 -118.28 2321.612 -108.16 2317.751 -118.026 2324.746 -118.28"/></g><g id="node23" class="node"><title>foo.scalacPluginIvyDeps</title><ellipse cx="2680.96" cy="-162" fill="none" stroke="#000" stroke-dasharray="1 5" rx="107.687" ry="18"/><text x="2680.96" y="-157.8" fill="#000" font-family="Times,serif" font-size="14" text-anchor="middle">foo.scalacPluginIvyDeps</text></g><g id="node24" class="node"><title>foo.scalacPluginClasspath</title><ellipse cx="2440.96" cy="-234" fill="none" stroke="#000" stroke-dasharray="1 5" rx="112.858" ry="18"/><text x="2440.96" y="-229.8" fill="#000" font-family="Times,serif" font-size="14" text-anchor="middle">foo.scalacPluginClasspath</text></g><g id="edge18" class="edge"><title>foo.scalacPluginClasspath-&gt;foo.platformSuffix</title><path fill="none" stroke="#000" d="M2438.941,-215.8314C2438.0854,-208.131 2437.068,-198.9743 2436.1171,-190.4166"/><polygon fill="#000" stroke="#000" points="2439.589 -189.966 2435.006 -180.413 2432.631 -190.739 2439.589 -189.966"/></g><g id="edge19" class="edge"><title>foo.scalacPluginClasspath-&gt;foo.scalaOrganization</title><path fill="none" stroke="#000" d="M2484.2228,-217.3162C2500.3185,-208.7449 2516.8674,-196.5484 2525.9597,-180 2533.6644,-165.9772 2535.7268,-156.673 2525.9597,-144 2511.194,-124.8411 2457.5461,-111.1203 2408.8372,-102.3042"/><polygon fill="#000" stroke="#000" points="2409.309 -98.834 2398.855 -100.552 2408.099 -105.728 2409.309 -98.834"/></g><g id="edge20" class="edge"><title>foo.scalacPluginClasspath-&gt;foo.scalacPluginIvyDeps</title><path fill="none" stroke="#000" d="M2493.9259,-218.1102C2530.7032,-207.0769 2579.8491,-192.3332 2618.5332,-180.728"/><polygon fill="#000" stroke="#000" points="2619.556 -184.075 2628.129 -177.849 2617.545 -177.37 2619.556 -184.075"/></g><g id="node25" class="node"><title>foo.compile</title><ellipse cx="2073.96" cy="-306" fill="none" stroke="#000" rx="57.365" ry="18"/><text x="2073.96" y="-301.8" fill="#000" font-family="Times,serif" font-size="14" text-anchor="middle">foo.compile</text></g><g id="edge21" class="edge"><title>foo.compile-&gt;mill.scalalib.ZincWorkerModule.worker</title><path fill="none" stroke="#000" d="M2016.8436,-303.1775C1811.1248,-293.0116 1103.1904,-258.0279 780.0811,-242.0609"/><polygon fill="#000" stroke="#000" points="779.853 -238.546 769.693 -241.548 779.508 -245.537 779.853 -238.546"/></g><g id="edge22" class="edge"><title>foo.compile-&gt;foo.upstreamCompileOutput</title><path fill="none" stroke="#000" d="M2020.9508,-298.9491C1944.0411,-288.7032 1797.027,-269.0585 1671.9597,-252 1661.8659,-250.6233 1651.3325,-249.1784 1640.8209,-247.7311"/><polygon fill="#000" stroke="#000" points="1641.149 -244.243 1630.764 -246.345 1640.193 -251.178 1641.149 -244.243"/></g><g id="edge23" class="edge"><title>foo.compile-&gt;foo.allSourceFiles</title><path fill="none" stroke="#000" d="M2027.7357,-295.2986C1975.2704,-283.1523 1889.2461,-263.2367 1829.55,-249.4164"/><polygon fill="#000" stroke="#000" points="1829.997 -245.927 1819.465 -247.082 1828.418 -252.747 1829.997 -245.927"/></g><g id="edge24" class="edge"><title>foo.compile-&gt;foo.compileClasspath</title><path fill="none" stroke="#000" d="M2047.9271,-289.8418C2032.2274,-280.0972 2011.9833,-267.5319 1994.6753,-256.7889"/><polygon fill="#000" stroke="#000" points="1996.274 -253.662 1985.931 -251.362 1992.582 -259.609 1996.274 -253.662"/></g><g id="edge25" class="edge"><title>foo.compile-&gt;foo.javacOptions</title><path fill="none" stroke="#000" d="M2129.9293,-301.5857C2221.0348,-294.0046 2406.9198,-276.8862 2562.9597,-252 2569.5383,-250.9508 2576.3752,-249.7357 2583.1907,-248.4419"/><polygon fill="#000" stroke="#000" points="2583.985 -251.853 2593.128 -246.5 2582.643 -244.983 2583.985 -251.853"/></g><g id="edge26" class="edge"><title>foo.compile-&gt;foo.scalacOptions</title><path fill="none" stroke="#000" d="M2131.2344,-303.5584C2246.1624,-298.1663 2512.9029,-283.1691 2734.9597,-252 2742.1198,-250.995 2749.5691,-249.7807 2756.9802,-248.463"/><polygon fill="#000" stroke="#000" points="2757.831 -251.865 2767.032 -246.612 2756.563 -244.981 2757.831 -251.865"/></g><g id="edge27" class="edge"><title>foo.compile-&gt;foo.scalaCompilerClasspath</title><path fill="none" stroke="#000" d="M2100.2168,-289.8418C2115.9371,-280.1678 2136.1748,-267.7138 2153.5477,-257.0228"/><polygon fill="#000" stroke="#000" points="2155.65 -259.839 2162.332 -251.617 2151.981 -253.877 2155.65 -259.839"/></g><g id="edge28" class="edge"><title>foo.compile-&gt;foo.scalacPluginClasspath</title><path fill="none" stroke="#000" d="M2122.6945,-296.439C2183.1241,-284.5836 2287.011,-264.2025 2359.6022,-249.9611"/><polygon fill="#000" stroke="#000" points="2360.491 -253.354 2369.63 -247.994 2359.143 -246.485 2360.491 -253.354"/></g></g></svg>