<svg xmlns="http://www.w3.org/2000/svg" xmlns:xlink="http://www.w3.org/1999/xlink" width="3169pt" height="620pt" viewBox="0 0 3169.04 620"><g id="graph0" class="graph" transform="scale(1 1) rotate(0) translate(4 616)"><title>example1</title><polygon fill="#fff" stroke="transparent" points="-4 4 -4 -616 3165.043 -616 3165.043 4 -4 4"/><g id="node1" class="node"><title>mill.scalalib.ZincWorkerModule.compilerInterfaceClasspath</title><ellipse cx="246.741" cy="-162" fill="none" stroke="#000" stroke-dasharray="1 5" rx="246.983" ry="18"/><text x="246.741" y="-157.8" fill="#000" font-family="Times,serif" font-size="14" text-anchor="middle">mill.scalalib.ZincWorkerModule.compilerInterfaceClasspath</text></g><g id="node2" class="node"><title>mill.scalalib.ZincWorkerModule.classpath</title><ellipse cx="687.741" cy="-162" fill="none" stroke="#000" stroke-dasharray="1 5" rx="175.919" ry="18"/><text x="687.741" y="-157.8" fill="#000" font-family="Times,serif" font-size="14" text-anchor="middle">mill.scalalib.ZincWorkerModule.classpath</text></g><g id="node3" class="node"><title>mill.scalalib.ZincWorkerModule.worker</title><ellipse cx="613.741" cy="-234" fill="none" stroke="#000" stroke-dasharray="1 5" rx="167.817" ry="18"/><text x="613.741" y="-229.8" fill="#000" font-family="Times,serif" font-size="14" text-anchor="middle">mill.scalalib.ZincWorkerModule.worker</text></g><g id="edge1" class="edge"><title>mill.scalalib.ZincWorkerModule.worker-&gt;mill.scalalib.ZincWorkerModule.compilerInterfaceClasspath</title><path fill="none" stroke="#000" d="M533.2016,-218.1993C477.1528,-207.2034 402.1559,-192.4901 342.9584,-180.8764"/><polygon fill="#000" stroke="#000" points="343.337 -177.384 332.85 -178.893 341.989 -184.253 343.337 -177.384"/></g><g id="edge2" class="edge"><title>mill.scalalib.ZincWorkerModule.worker-&gt;mill.scalalib.ZincWorkerModule.classpath</title><path fill="none" stroke="#000" d="M632.4146,-215.8314C641.4221,-207.0673 652.3682,-196.4171 662.1391,-186.9103"/><polygon fill="#000" stroke="#000" points="664.604 -189.395 669.33 -179.913 659.722 -184.378 664.604 -189.395"/></g><g id="node4" class="node"><title>foo.upstreamCompileOutput</title><ellipse cx="921.741" cy="-234" fill="none" stroke="#000" stroke-dasharray="1 5" rx="121.613" ry="18"/><text x="921.741" y="-229.8" fill="#000" font-family="Times,serif" font-size="14" text-anchor="middle">foo.upstreamCompileOutput</text></g><g id="node5" class="node"><title>foo.sources</title><ellipse cx="2425.741" cy="-90" fill="none" stroke="#000" stroke-dasharray="1 5" rx="55.059" ry="18"/><text x="2425.741" y="-85.8" fill="#000" font-family="Times,serif" font-size="14" text-anchor="middle">foo.sources</text></g><g id="node6" class="node"><title>foo.generatedSources</title><ellipse cx="2593.741" cy="-90" fill="none" stroke="#000" stroke-dasharray="1 5" rx="94.345" ry="18"/><text x="2593.741" y="-85.8" fill="#000" font-family="Times,serif" font-size="14" text-anchor="middle">foo.generatedSources</text></g><g id="node7" class="node"><title>foo.allSources</title><ellipse cx="2589.741" cy="-162" fill="none" stroke="#000" stroke-dasharray="1 5" rx="66.591" ry="18"/><text x="2589.741" y="-157.8" fill="#000" font-family="Times,serif" font-size="14" text-anchor="middle">foo.allSources</text></g><g id="edge3" class="edge"><title>foo.allSources-&gt;foo.sources</title><path fill="none" stroke="#000" d="M2554.5592,-146.5542C2529.3281,-135.4771 2495.2035,-120.4956 2468.4156,-108.735"/><polygon fill="#000" stroke="#000" points="2469.472 -105.376 2458.908 -104.561 2466.658 -111.786 2469.472 -105.376"/></g><g id="edge4" class="edge"><title>foo.allSources-&gt;foo.generatedSources</title><path fill="none" stroke="#000" d="M2590.7506,-143.8314C2591.1784,-136.131 2591.6872,-126.9743 2592.1626,-118.4166"/><polygon fill="#000" stroke="#000" points="2595.658 -118.592 2592.718 -108.413 2588.669 -118.204 2595.658 -118.592"/></g><g id="node8" class="node"><title>foo.allSourceFiles</title><ellipse cx="2222.741" cy="-234" fill="none" stroke="#000" stroke-dasharray="1 5" rx="81.636" ry="18"/><text x="2222.741" y="-229.8" fill="#000" font-family="Times,serif" font-size="14" text-anchor="middle">foo.allSourceFiles</text></g><g id="edge5" class="edge"><title>foo.allSourceFiles-&gt;foo.allSources</title><path fill="none" stroke="#000" d="M2287.3575,-222.9467C2346.4465,-212.6167 2436.1912,-196.3686 2513.7413,-180 2519.1311,-178.8624 2524.7241,-177.6325 2530.3202,-176.3683"/><polygon fill="#000" stroke="#000" points="2531.388 -179.714 2540.353 -174.068 2529.824 -172.891 2531.388 -179.714"/></g><g id="node9" class="node"><title>foo.transitiveLocalClasspath</title><ellipse cx="1805.741" cy="-162" fill="none" stroke="#000" stroke-dasharray="1 5" rx="121.584" ry="18"/><text x="1805.741" y="-157.8" fill="#000" font-family="Times,serif" font-size="14" text-anchor="middle">foo.transitiveLocalClasspath</text></g><g id="node10" class="node"><title>foo.resources</title><ellipse cx="2008.741" cy="-162" fill="none" stroke="#000" stroke-dasharray="1 5" rx="62.562" ry="18"/><text x="2008.741" y="-157.8" fill="#000" font-family="Times,serif" font-size="14" text-anchor="middle">foo.resources</text></g><g id="node11" class="node"><title>foo.unmanagedClasspath</title><ellipse cx="2197.741" cy="-162" fill="none" stroke="#000" stroke-dasharray="1 5" rx="108.273" ry="18"/><text x="2197.741" y="-157.8" fill="#000" font-family="Times,serif" font-size="14" text-anchor="middle">foo.unmanagedClasspath</text></g><g id="node12" class="node"><title>foo.scalaVersion</title><ellipse cx="1423.741" cy="-18" fill="none" stroke="#000" stroke-dasharray="1 5" rx="76.382" ry="18"/><text x="1423.741" y="-13.8" fill="#000" font-family="Times,serif" font-size="14" text-anchor="middle">foo.scalaVersion</text></g><g id="node13" class="node"><title>foo.platformSuffix</title><ellipse cx="1311.741" cy="-162" fill="none" stroke="#000" stroke-dasharray="1 5" rx="83.928" ry="18"/><text x="1311.741" y="-157.8" fill="#000" font-family="Times,serif" font-size="14" text-anchor="middle">foo.platformSuffix</text></g><g id="node14" class="node"><title>foo.compileIvyDeps</title><ellipse cx="2414.741" cy="-162" fill="none" stroke="#000" stroke-dasharray="1 5" rx="90.293" ry="18"/><text x="2414.741" y="-157.8" fill="#000" font-family="Times,serif" font-size="14" text-anchor="middle">foo.compileIvyDeps</text></g><g id="node15" class="node"><title>foo.scalaOrganization</title><ellipse cx="1423.741" cy="-90" fill="none" stroke="#000" stroke-dasharray="1 5" rx="96.066" ry="18"/><text x="1423.741" y="-85.8" fill="#000" font-family="Times,serif" font-size="14" text-anchor="middle">foo.scalaOrganization</text></g><g id="edge6" class="edge"><title>foo.scalaOrganization-&gt;foo.scalaVersion</title><path fill="none" stroke="#000" d="M1423.7413,-71.8314C1423.7413,-64.131 1423.7413,-54.9743 1423.7413,-46.4166"/><polygon fill="#000" stroke="#000" points="1427.241 -46.413 1423.741 -36.413 1420.241 -46.413 1427.241 -46.413"/></g><g id="node16" class="node"><title>foo.scalaLibraryIvyDeps</title><ellipse cx="1558.741" cy="-162" fill="none" stroke="#000" stroke-dasharray="1 5" rx="107.085" ry="18"/><text x="1558.741" y="-157.8" fill="#000" font-family="Times,serif" font-size="14" text-anchor="middle">foo.scalaLibraryIvyDeps</text></g><g id="edge7" class="edge"><title>foo.scalaLibraryIvyDeps-&gt;foo.scalaOrganization</title><path fill="none" stroke="#000" d="M1526.4054,-144.7542C1507.9542,-134.9136 1484.6394,-122.479 1464.893,-111.9476"/><polygon fill="#000" stroke="#000" points="1466.284 -108.723 1455.813 -107.105 1462.99 -114.899 1466.284 -108.723"/></g><g id="node17" class="node"><title>foo.ivyDeps</title><ellipse cx="2769.741" cy="-90" fill="none" stroke="#000" stroke-dasharray="1 5" rx="58.51" ry="18"/><text x="2769.741" y="-85.8" fill="#000" font-family="Times,serif" font-size="14" text-anchor="middle">foo.ivyDeps</text></g><g id="node18" class="node"><title>foo.transitiveIvyDeps</title><ellipse cx="2769.741" cy="-162" fill="none" stroke="#000" stroke-dasharray="1 5" rx="94.944" ry="18"/><text x="2769.741" y="-157.8" fill="#000" font-family="Times,serif" font-size="14" text-anchor="middle">foo.transitiveIvyDeps</text></g><g id="edge8" class="edge"><title>foo.transitiveIvyDeps-&gt;foo.ivyDeps</title><path fill="none" stroke="#000" d="M2769.7413,-143.8314C2769.7413,-136.131 2769.7413,-126.9743 2769.7413,-118.4166"/><polygon fill="#000" stroke="#000" points="2773.241 -118.413 2769.741 -108.413 2766.241 -118.413 2773.241 -118.413"/></g><g id="node19" class="node"><title>foo.compileClasspath</title><ellipse cx="2007.741" cy="-234" fill="none" stroke="#000" stroke-dasharray="1 5" rx="94.963" ry="18"/><text x="2007.741" y="-229.8" fill="#000" font-family="Times,serif" font-size="14" text-anchor="middle">foo.compileClasspath</text></g><g id="edge13" class="edge"><title>foo.compileClasspath-&gt;foo.transitiveLocalClasspath</title><path fill="none" stroke="#000" d="M1962.9109,-218.0209C1933.2064,-207.4331 1893.9974,-193.4576 1862.1729,-182.1142"/><polygon fill="#000" stroke="#000" points="1863.147 -178.746 1852.552 -178.685 1860.796 -185.339 1863.147 -178.746"/></g><g id="edge14" class="edge"><title>foo.compileClasspath-&gt;foo.resources</title><path fill="none" stroke="#000" d="M2007.9936,-215.8314C2008.1006,-208.131 2008.2277,-198.9743 2008.3466,-190.4166"/><polygon fill="#000" stroke="#000" points="2011.846 -190.461 2008.486 -180.413 2004.847 -190.364 2011.846 -190.461"/></g><g id="edge15" class="edge"><title>foo.compileClasspath-&gt;foo.unmanagedClasspath</title><path fill="none" stroke="#000" d="M2050.381,-217.8418C2078.2218,-207.2916 2114.7876,-193.4351 2144.5291,-182.1646"/><polygon fill="#000" stroke="#000" points="2145.815 -185.42 2153.926 -178.604 2143.335 -178.875 2145.815 -185.42"/></g><g id="edge9" class="edge"><title>foo.compileClasspath-&gt;foo.platformSuffix</title><path fill="none" stroke="#000" d="M1939.9072,-221.319C1927.8883,-219.3411 1915.4685,-217.4695 1903.7413,-216 1699.8233,-190.4479 1647.0733,-201.9972 1442.7413,-180 1425.8553,-178.1822 1407.7888,-175.9117 1390.6342,-173.6021"/><polygon fill="#000" stroke="#000" points="1391.036 -170.125 1380.655 -172.241 1390.09 -177.06 1391.036 -170.125"/></g><g id="edge10" class="edge"><title>foo.compileClasspath-&gt;foo.compileIvyDeps</title><path fill="none" stroke="#000" d="M2077.8649,-221.7473C2140.0989,-210.8536 2233.4895,-194.4585 2314.7413,-180 2322.2513,-178.6636 2330.0774,-177.2651 2337.8986,-175.8636"/><polygon fill="#000" stroke="#000" points="2338.554 -179.302 2347.779 -174.091 2337.318 -172.412 2338.554 -179.302"/></g><g id="edge11" class="edge"><title>foo.compileClasspath-&gt;foo.scalaLibraryIvyDeps</title><path fill="none" stroke="#000" d="M1937.8393,-221.7425C1926.448,-219.7907 1914.7702,-217.8174 1903.7413,-216 1878.9237,-211.9103 1741.3017,-190.4303 1647.5564,-175.8253"/><polygon fill="#000" stroke="#000" points="1647.911 -172.338 1637.491 -174.257 1646.833 -179.255 1647.911 -172.338"/></g><g id="edge12" class="edge"><title>foo.compileClasspath-&gt;foo.transitiveIvyDeps</title><path fill="none" stroke="#000" d="M2080.7325,-222.4518C2097.4617,-220.0703 2115.1929,-217.7563 2131.7413,-216 2368.2849,-190.8956 2429.5613,-208.3219 2665.7413,-180 2674.3335,-178.9697 2683.295,-177.7069 2692.197,-176.3325"/><polygon fill="#000" stroke="#000" points="2692.874 -179.769 2702.2 -174.74 2691.773 -172.856 2692.874 -179.769"/></g><g id="node20" class="node"><title>foo.javacOptions</title><ellipse cx="1638.741" cy="-234" fill="none" stroke="#000" stroke-dasharray="1 5" rx="77.05" ry="18"/><text x="1638.741" y="-229.8" fill="#000" font-family="Times,serif" font-size="14" text-anchor="middle">foo.javacOptions</text></g><g id="node21" class="node"><title>foo.scalacOptions</title><ellipse cx="1814.741" cy="-234" fill="none" stroke="#000" stroke-dasharray="1 5" rx="80.477" ry="18"/><text x="1814.741" y="-229.8" fill="#000" font-family="Times,serif" font-size="14" text-anchor="middle">foo.scalacOptions</text></g><g id="node22" class="node"><title>foo.scalaCompilerClasspath</title><ellipse cx="1423.741" cy="-234" fill="none" stroke="#000" stroke-dasharray="1 5" rx="119.798" ry="18"/><text x="1423.741" y="-229.8" fill="#000" font-family="Times,serif" font-size="14" text-anchor="middle">foo.scalaCompilerClasspath</text></g><g id="edge16" class="edge"><title>foo.scalaCompilerClasspath-&gt;foo.platformSuffix</title><path fill="none" stroke="#000" d="M1396.343,-216.3868C1381.4804,-206.8323 1362.9437,-194.9158 1347.0127,-184.6745"/><polygon fill="#000" stroke="#000" points="1348.775 -181.646 1338.47 -179.183 1344.989 -187.535 1348.775 -181.646"/></g><g id="edge17" class="edge"><title>foo.scalaCompilerClasspath-&gt;foo.scalaOrganization</title><path fill="none" stroke="#000" d="M1423.7413,-215.7623C1423.7413,-191.201 1423.7413,-147.2474 1423.7413,-118.3541"/><polygon fill="#000" stroke="#000" points="1427.241 -118.09 1423.741 -108.09 1420.241 -118.09 1427.241 -118.09"/></g><g id="node23" class="node"><title>foo.scalacPluginIvyDeps</title><ellipse cx="1101.741" cy="-162" fill="none" stroke="#000" stroke-dasharray="1 5" rx="107.687" ry="18"/><text x="1101.741" y="-157.8" fill="#000" font-family="Times,serif" font-size="14" text-anchor="middle">foo.scalacPluginIvyDeps</text></g><g id="node24" class="node"><title>foo.scalacPluginClasspath</title><ellipse cx="1173.741" cy="-234" fill="none" stroke="#000" stroke-dasharray="1 5" rx="112.858" ry="18"/><text x="1173.741" y="-229.8" fill="#000" font-family="Times,serif" font-size="14" text-anchor="middle">foo.scalacPluginClasspath</text></g><g id="edge18" class="edge"><title>foo.scalacPluginClasspath-&gt;foo.platformSuffix</title><path fill="none" stroke="#000" d="M1206.7957,-216.7542C1225.8806,-206.7969 1250.0557,-194.1838 1270.3915,-183.5738"/><polygon fill="#000" stroke="#000" points="1272.186 -186.585 1279.433 -178.857 1268.948 -180.379 1272.186 -186.585"/></g><g id="edge19" class="edge"><title>foo.scalacPluginClasspath-&gt;foo.scalaOrganization</title><path fill="none" stroke="#000" d="M1088.3597,-222.1808C1022.3621,-209.5836 947.9614,-185.5813 984.7413,-144 1006.6848,-119.1919 1198.4347,-103.296 1321.1512,-95.5671"/><polygon fill="#000" stroke="#000" points="1321.568 -99.048 1331.332 -94.935 1321.134 -92.061 1321.568 -99.048"/></g><g id="edge20" class="edge"><title>foo.scalacPluginClasspath-&gt;foo.scalacPluginIvyDeps</title><path fill="none" stroke="#000" d="M1155.9435,-216.2022C1147.1165,-207.3752 1136.3082,-196.5669 1126.672,-186.9307"/><polygon fill="#000" stroke="#000" points="1129.13 -184.439 1119.584 -179.843 1124.18 -189.388 1129.13 -184.439"/></g><g id="node25" class="node"><title>foo.compile</title><ellipse cx="1559.741" cy="-306" fill="none" stroke="#000" rx="57.365" ry="18"/><text x="1559.741" y="-301.8" fill="#000" font-family="Times,serif" font-size="14" text-anchor="middle">foo.compile</text></g><g id="edge21" class="edge"><title>foo.compile-&gt;mill.scalalib.ZincWorkerModule.worker</title><path fill="none" stroke="#000" d="M1503.2542,-302.6397C1375.9795,-294.9356 1057.0964,-274.8897 790.7413,-252 775.4684,-250.6875 759.465,-249.2074 743.5884,-247.674"/><polygon fill="#000" stroke="#000" points="743.475 -244.146 733.182 -246.66 742.796 -251.113 743.475 -244.146"/></g><g id="edge22" class="edge"><title>foo.compile-&gt;foo.upstreamCompileOutput</title><path fill="none" stroke="#000" d="M1504.7997,-300.7356C1411.5455,-291.6712 1216.3665,-272.1418 1051.7413,-252 1041.2654,-250.7183 1030.3245,-249.3111 1019.4298,-247.8658"/><polygon fill="#000" stroke="#000" points="1019.828 -244.388 1009.452 -246.53 1018.899 -251.326 1019.828 -244.388"/></g><g id="edge23" class="edge"><title>foo.compile-&gt;foo.allSourceFiles</title><path fill="none" stroke="#000" d="M1615.8982,-301.6872C1715.8331,-293.7492 1931.0284,-275.4677 2111.7413,-252 2123.6144,-250.4581 2136.1691,-248.622 2148.3975,-246.721"/><polygon fill="#000" stroke="#000" points="2149.239 -250.132 2158.57 -245.114 2148.147 -243.217 2149.239 -250.132"/></g><g id="edge24" class="edge"><title>foo.compile-&gt;foo.compileClasspath</title><path fill="none" stroke="#000" d="M1611.6501,-298.1108C1679.033,-287.8102 1800.2539,-269.0771 1903.7413,-252 1911.5818,-250.7062 1919.7505,-249.3342 1927.9111,-247.9476"/><polygon fill="#000" stroke="#000" points="1928.57 -251.386 1937.839 -246.253 1927.392 -244.486 1928.57 -251.386"/></g><g id="edge25" class="edge"><title>foo.compile-&gt;foo.javacOptions</title><path fill="none" stroke="#000" d="M1578.4632,-288.937C1588.4499,-279.8352 1600.9139,-268.4756 1611.9121,-258.4519"/><polygon fill="#000" stroke="#000" points="1614.572 -260.764 1619.605 -251.441 1609.856 -255.59 1614.572 -260.764"/></g><g id="edge26" class="edge"><title>foo.compile-&gt;foo.scalacOptions</title><path fill="none" stroke="#000" d="M1602.4225,-293.9488C1644.118,-282.176 1707.9618,-264.1495 1754.7551,-250.9373"/><polygon fill="#000" stroke="#000" points="1755.795 -254.281 1764.467 -248.195 1753.892 -247.544 1755.795 -254.281"/></g><g id="edge27" class="edge"><title>foo.compile-&gt;foo.scalaCompilerClasspath</title><path fill="none" stroke="#000" d="M1530.2313,-290.3771C1511.3129,-280.3614 1486.4678,-267.2082 1465.5347,-256.1259"/><polygon fill="#000" stroke="#000" points="1467.006 -252.945 1456.53 -251.359 1463.731 -259.131 1467.006 -252.945"/></g><g id="edge28" class="edge"><title>foo.compile-&gt;foo.scalacPluginClasspath</title><path fill="none" stroke="#000" d="M1510.0688,-296.7347C1446.2492,-284.8305 1334.5289,-263.9915 1257.47,-249.6178"/><polygon fill="#000" stroke="#000" points="1257.78 -246.115 1247.308 -247.722 1256.496 -252.997 1257.78 -246.115"/></g><g id="node26" class="node"><title>bar.upstreamCompileOutput</title><ellipse cx="1554.741" cy="-378" fill="none" stroke="#000" stroke-dasharray="1 5" rx="121.03" ry="18"/><text x="1554.741" y="-373.8" fill="#000" font-family="Times,serif" font-size="14" text-anchor="middle">bar.upstreamCompileOutput</text></g><g id="edge29" class="edge"><title>bar.upstreamCompileOutput-&gt;foo.compile</title><path fill="none" stroke="#000" d="M1556.003,-359.8314C1556.5377,-352.131 1557.1736,-342.9743 1557.7679,-334.4166"/><polygon fill="#000" stroke="#000" points="1561.261 -334.632 1558.463 -324.413 1554.278 -334.147 1561.261 -334.632"/></g><g id="node27" class="node"><title>bar.sources</title><ellipse cx="1149.741" cy="-378" fill="none" stroke="#000" stroke-dasharray="1 5" rx="54.975" ry="18"/><text x="1149.741" y="-373.8" fill="#000" font-family="Times,serif" font-size="14" text-anchor="middle">bar.sources</text></g><g id="node28" class="node"><title>bar.generatedSources</title><ellipse cx="1316.741" cy="-378" fill="none" stroke="#000" stroke-dasharray="1 5" rx="93.761" ry="18"/><text x="1316.741" y="-373.8" fill="#000" font-family="Times,serif" font-size="14" text-anchor="middle">bar.generatedSources</text></g><g id="node29" class="node"><title>bar.allSources</title><ellipse cx="1277.741" cy="-450" fill="none" stroke="#000" stroke-dasharray="1 5" rx="66.008" ry="18"/><text x="1277.741" y="-445.8" fill="#000" font-family="Times,serif" font-size="14" text-anchor="middle">bar.allSources</text></g><g id="edge30" class="edge"><title>bar.allSources-&gt;bar.sources</title><path fill="none" stroke="#000" d="M1248.6961,-433.6621C1230.2744,-423.2999 1206.2792,-409.8026 1186.5311,-398.6943"/><polygon fill="#000" stroke="#000" points="1188.224 -395.631 1177.792 -393.778 1184.792 -401.732 1188.224 -395.631"/></g><g id="edge31" class="edge"><title>bar.allSources-&gt;bar.generatedSources</title><path fill="none" stroke="#000" d="M1287.5826,-431.8314C1292.004,-423.6688 1297.3117,-413.87 1302.1798,-404.8827"/><polygon fill="#000" stroke="#000" points="1305.353 -406.373 1307.038 -395.913 1299.198 -403.039 1305.353 -406.373"/></g><g id="node30" class="node"><title>bar.allSourceFiles</title><ellipse cx="1277.741" cy="-522" fill="none" stroke="#000" stroke-dasharray="1 5" rx="81.052" ry="18"/><text x="1277.741" y="-517.8" fill="#000" font-family="Times,serif" font-size="14" text-anchor="middle">bar.allSourceFiles</text></g><g id="edge32" class="edge"><title>bar.allSourceFiles-&gt;bar.allSources</title><path fill="none" stroke="#000" d="M1277.7413,-503.8314C1277.7413,-496.131 1277.7413,-486.9743 1277.7413,-478.4166"/><polygon fill="#000" stroke="#000" points="1281.241 -478.413 1277.741 -468.413 1274.241 -478.413 1281.241 -478.413"/></g><g id="node31" class="node"><title>foo.localClasspath</title><ellipse cx="1944.741" cy="-378" fill="none" stroke="#000" stroke-dasharray="1 5" rx="82.782" ry="18"/><text x="1944.741" y="-373.8" fill="#000" font-family="Times,serif" font-size="14" text-anchor="middle">foo.localClasspath</text></g><g id="edge33" class="edge"><title>foo.localClasspath-&gt;foo.compile</title><path fill="none" stroke="#000" d="M1882.0275,-366.2717C1809.4239,-352.6939 1690.7149,-330.4938 1619.4244,-317.1615"/><polygon fill="#000" stroke="#000" points="1619.734 -313.659 1609.261 -315.261 1618.447 -320.54 1619.734 -313.659"/></g><g id="node32" class="node"><title>bar.transitiveLocalClasspath</title><ellipse cx="2108.741" cy="-450" fill="none" stroke="#000" stroke-dasharray="1 5" rx="121.001" ry="18"/><text x="2108.741" y="-445.8" fill="#000" font-family="Times,serif" font-size="14" text-anchor="middle">bar.transitiveLocalClasspath</text></g><g id="edge34" class="edge"><title>bar.transitiveLocalClasspath-&gt;foo.localClasspath</title><path fill="none" stroke="#000" d="M2069.8756,-432.937C2046.1902,-422.5386 2015.7927,-409.1933 1990.8889,-398.2599"/><polygon fill="#000" stroke="#000" points="1992.202 -395.014 1981.639 -394.199 1989.388 -401.424 1992.202 -395.014"/></g><g id="node33" class="node"><title>bar.resources</title><ellipse cx="1907.741" cy="-450" fill="none" stroke="#000" stroke-dasharray="1 5" rx="62.478" ry="18"/><text x="1907.741" y="-445.8" fill="#000" font-family="Times,serif" font-size="14" text-anchor="middle">bar.resources</text></g><g id="node34" class="node"><title>bar.unmanagedClasspath</title><ellipse cx="1522.741" cy="-450" fill="none" stroke="#000" stroke-dasharray="1 5" rx="107.689" ry="18"/><text x="1522.741" y="-445.8" fill="#000" font-family="Times,serif" font-size="14" text-anchor="middle">bar.unmanagedClasspath</text></g><g id="node35" class="node"><title>bar.scalaVersion</title><ellipse cx="2880.741" cy="-306" fill="none" stroke="#000" stroke-dasharray="1 5" rx="75.799" ry="18"/><text x="2880.741" y="-301.8" fill="#000" font-family="Times,serif" font-size="14" text-anchor="middle">bar.scalaVersion</text></g><g id="node36" class="node"><title>bar.platformSuffix</title><ellipse cx="2769.741" cy="-450" fill="none" stroke="#000" stroke-dasharray="1 5" rx="83.344" ry="18"/><text x="2769.741" y="-445.8" fill="#000" font-family="Times,serif" font-size="14" text-anchor="middle">bar.platformSuffix</text></g><g id="node37" class="node"><title>bar.compileIvyDeps</title><ellipse cx="1737.741" cy="-450" fill="none" stroke="#000" stroke-dasharray="1 5" rx="89.709" ry="18"/><text x="1737.741" y="-445.8" fill="#000" font-family="Times,serif" font-size="14" text-anchor="middle">bar.compileIvyDeps</text></g><g id="node38" class="node"><title>bar.scalaOrganization</title><ellipse cx="2880.741" cy="-378" fill="none" stroke="#000" stroke-dasharray="1 5" rx="95.483" ry="18"/><text x="2880.741" y="-373.8" fill="#000" font-family="Times,serif" font-size="14" text-anchor="middle">bar.scalaOrganization</text></g><g id="edge35" class="edge"><title>bar.scalaOrganization-&gt;bar.scalaVersion</title><path fill="none" stroke="#000" d="M2880.7413,-359.8314C2880.7413,-352.131 2880.7413,-342.9743 2880.7413,-334.4166"/><polygon fill="#000" stroke="#000" points="2884.241 -334.413 2880.741 -324.413 2877.241 -334.413 2884.241 -334.413"/></g><g id="node39" class="node"><title>bar.scalaLibraryIvyDeps</title><ellipse cx="2561.741" cy="-450" fill="none" stroke="#000" stroke-dasharray="1 5" rx="106.501" ry="18"/><text x="2561.741" y="-445.8" fill="#000" font-family="Times,serif" font-size="14" text-anchor="middle">bar.scalaLibraryIvyDeps</text></g><g id="edge36" class="edge"><title>bar.scalaLibraryIvyDeps-&gt;bar.scalaOrganization</title><path fill="none" stroke="#000" d="M2625.912,-435.5163C2679.0086,-423.5322 2754.3676,-406.5232 2809.3597,-394.1112"/><polygon fill="#000" stroke="#000" points="2810.397 -397.465 2819.381 -391.849 2808.856 -390.637 2810.397 -397.465"/></g><g id="node40" class="node"><title>bar.ivyDeps</title><ellipse cx="2428.741" cy="-378" fill="none" stroke="#000" stroke-dasharray="1 5" rx="57.927" ry="18"/><text x="2428.741" y="-373.8" fill="#000" font-family="Times,serif" font-size="14" text-anchor="middle">bar.ivyDeps</text></g><g id="node41" class="node"><title>bar.transitiveIvyDeps</title><ellipse cx="2342.741" cy="-450" fill="none" stroke="#000" stroke-dasharray="1 5" rx="94.36" ry="18"/><text x="2342.741" y="-445.8" fill="#000" font-family="Times,serif" font-size="14" text-anchor="middle">bar.transitiveIvyDeps</text></g><g id="edge37" class="edge"><title>bar.transitiveIvyDeps-&gt;foo.transitiveIvyDeps</title><path fill="none" stroke="#000" d="M2342.0851,-431.8374C2342.3109,-412.1461 2345.5128,-380.7589 2361.7413,-360 2445.2557,-253.1712 2601.0602,-200.4671 2694.0898,-177.4129"/><polygon fill="#000" stroke="#000" points="2695.109 -180.767 2704.002 -175.01 2693.459 -173.964 2695.109 -180.767"/></g><g id="edge38" class="edge"><title>bar.transitiveIvyDeps-&gt;bar.ivyDeps</title><path fill="none" stroke="#000" d="M2363.9997,-432.2022C2374.9923,-422.9991 2388.5575,-411.6423 2400.4262,-401.7056"/><polygon fill="#000" stroke="#000" points="2402.899 -404.2 2408.32 -395.097 2398.405 -398.833 2402.899 -404.2"/></g><g id="node42" class="node"><title>bar.compileClasspath</title><ellipse cx="1997.741" cy="-522" fill="none" stroke="#000" stroke-dasharray="1 5" rx="94.379" ry="18"/><text x="1997.741" y="-517.8" fill="#000" font-family="Times,serif" font-size="14" text-anchor="middle">bar.compileClasspath</text></g><g id="edge43" class="edge"><title>bar.compileClasspath-&gt;bar.transitiveLocalClasspath</title><path fill="none" stroke="#000" d="M2024.6113,-504.5708C2039.1198,-495.1599 2057.223,-483.4173 2072.9156,-473.2383"/><polygon fill="#000" stroke="#000" points="2074.863 -476.147 2081.348 -467.769 2071.053 -470.274 2074.863 -476.147"/></g><g id="edge44" class="edge"><title>bar.compileClasspath-&gt;bar.resources</title><path fill="none" stroke="#000" d="M1975.4941,-504.2022C1963.8796,-494.9106 1949.5209,-483.4237 1937.0155,-473.4194"/><polygon fill="#000" stroke="#000" points="1939.108 -470.611 1929.113 -467.097 1934.735 -476.077 1939.108 -470.611"/></g><g id="edge45" class="edge"><title>bar.compileClasspath-&gt;bar.unmanagedClasspath</title><path fill="none" stroke="#000" d="M1923.1245,-510.8795C1850.5009,-500.0317 1737.0265,-483.0174 1638.7413,-468 1629.9384,-466.655 1620.7611,-465.2447 1611.5936,-463.8306"/><polygon fill="#000" stroke="#000" points="1612.085 -460.365 1601.668 -462.298 1611.016 -467.283 1612.085 -460.365"/></g><g id="edge39" class="edge"><title>bar.compileClasspath-&gt;bar.platformSuffix</title><path fill="none" stroke="#000" d="M2064.6241,-509.2051C2076.6158,-507.2273 2089.0234,-505.3851 2100.7413,-504 2355.9079,-473.8376 2422.8924,-500.7381 2677.7413,-468 2685.1491,-467.0484 2692.8575,-465.8595 2700.5205,-464.5491"/><polygon fill="#000" stroke="#000" points="2701.307 -467.964 2710.539 -462.766 2700.081 -461.072 2701.307 -467.964"/></g><g id="edge40" class="edge"><title>bar.compileClasspath-&gt;bar.compileIvyDeps</title><path fill="none" stroke="#000" d="M1944.1844,-507.1689C1902.447,-495.6108 1844.4052,-479.5377 1800.4916,-467.377"/><polygon fill="#000" stroke="#000" points="1801.355 -463.984 1790.784 -464.689 1799.487 -470.731 1801.355 -463.984"/></g><g id="edge41" class="edge"><title>bar.compileClasspath-&gt;bar.scalaLibraryIvyDeps</title><path fill="none" stroke="#000" d="M2065.7841,-509.4258C2077.4246,-507.4706 2089.4144,-505.5788 2100.7413,-504 2253.4311,-482.7176 2292.8556,-487.8259 2445.7413,-468 2455.1164,-466.7843 2464.9025,-465.4181 2474.643,-463.996"/><polygon fill="#000" stroke="#000" points="2475.379 -467.425 2484.758 -462.498 2474.353 -460.501 2475.379 -467.425"/></g><g id="edge42" class="edge"><title>bar.compileClasspath-&gt;bar.transitiveIvyDeps</title><path fill="none" stroke="#000" d="M2061.8246,-508.6261C2120.5242,-496.3757 2207.3909,-478.247 2268.9625,-465.3973"/><polygon fill="#000" stroke="#000" points="2269.927 -468.772 2279.001 -463.302 2268.497 -461.919 2269.927 -468.772"/></g><g id="node43" class="node"><title>bar.javacOptions</title><ellipse cx="2186.741" cy="-522" fill="none" stroke="#000" stroke-dasharray="1 5" rx="76.966" ry="18"/><text x="2186.741" y="-517.8" fill="#000" font-family="Times,serif" font-size="14" text-anchor="middle">bar.javacOptions</text></g><g id="node44" class="node"><title>bar.scalacOptions</title><ellipse cx="2361.741" cy="-522" fill="none" stroke="#000" stroke-dasharray="1 5" rx="79.893" ry="18"/><text x="2361.741" y="-517.8" fill="#000" font-family="Times,serif" font-size="14" text-anchor="middle">bar.scalacOptions</text></g><g id="node45" class="node"><title>bar.scalaCompilerClasspath</title><ellipse cx="2669.741" cy="-522" fill="none" stroke="#000" stroke-dasharray="1 5" rx="119.215" ry="18"/><text x="2669.741" y="-517.8" fill="#000" font-family="Times,serif" font-size="14" text-anchor="middle">bar.scalaCompilerClasspath</text></g><g id="edge46" class="edge"><title>bar.scalaCompilerClasspath-&gt;bar.platformSuffix</title><path fill="none" stroke="#000" d="M2694.4604,-504.2022C2707.3925,-494.8911 2723.3866,-483.3754 2737.3019,-473.3564"/><polygon fill="#000" stroke="#000" points="2739.581 -476.028 2745.652 -467.345 2735.491 -470.347 2739.581 -476.028"/></g><g id="edge47" class="edge"><title>bar.scalaCompilerClasspath-&gt;bar.scalaOrganization</title><path fill="none" stroke="#000" d="M2748.1946,-508.4375C2794.0253,-498.9393 2845.8877,-484.938 2861.7413,-468 2877.118,-451.5716 2881.3237,-425.962 2881.9973,-406.2552"/><polygon fill="#000" stroke="#000" points="2885.499 -406.03 2882.057 -396.01 2878.499 -405.99 2885.499 -406.03"/></g><g id="node46" class="node"><title>bar.scalacPluginIvyDeps</title><ellipse cx="3053.741" cy="-450" fill="none" stroke="#000" stroke-dasharray="1 5" rx="107.104" ry="18"/><text x="3053.741" y="-445.8" fill="#000" font-family="Times,serif" font-size="14" text-anchor="middle">bar.scalacPluginIvyDeps</text></g><g id="node47" class="node"><title>bar.scalacPluginClasspath</title><ellipse cx="2918.741" cy="-522" fill="none" stroke="#000" stroke-dasharray="1 5" rx="112.274" ry="18"/><text x="2918.741" y="-517.8" fill="#000" font-family="Times,serif" font-size="14" text-anchor="middle">bar.scalacPluginClasspath</text></g><g id="edge48" class="edge"><title>bar.scalacPluginClasspath-&gt;bar.platformSuffix</title><path fill="none" stroke="#000" d="M2883.0521,-504.7542C2862.0343,-494.598 2835.2987,-481.6788 2813.0762,-470.9404"/><polygon fill="#000" stroke="#000" points="2814.385 -467.686 2803.858 -466.486 2811.34 -473.988 2814.385 -467.686"/></g><g id="edge49" class="edge"><title>bar.scalacPluginClasspath-&gt;bar.scalaOrganization</title><path fill="none" stroke="#000" d="M2913.9286,-503.7623C2907.4186,-479.0928 2895.7459,-434.8598 2888.1231,-405.9731"/><polygon fill="#000" stroke="#000" points="2891.451 -404.866 2885.515 -396.09 2884.682 -406.652 2891.451 -404.866"/></g><g id="edge50" class="edge"><title>bar.scalacPluginClasspath-&gt;bar.scalacPluginIvyDeps</title><path fill="none" stroke="#000" d="M2951.0771,-504.7542C2969.3937,-494.9854 2992.503,-482.6604 3012.1565,-472.1785"/><polygon fill="#000" stroke="#000" points="3014.025 -475.149 3021.201 -467.355 3010.731 -468.972 3014.025 -475.149"/></g><g id="node48" class="node"><title>bar.compile</title><ellipse cx="2091.741" cy="-594" fill="none" stroke="#000" rx="56.781" ry="18"/><text x="2091.741" y="-589.8" fill="#000" font-family="Times,serif" font-size="14" text-anchor="middle">bar.compile</text></g><g id="edge51" class="edge"><title>bar.compile-&gt;mill.scalalib.ZincWorkerModule.worker</title><path fill="none" stroke="#000" d="M2034.6053,-593.4318C1791.5217,-590.2739 855.7413,-570.3043 855.7413,-450 855.7413,-450 855.7413,-450 855.7413,-378 855.7413,-307.4046 778.7467,-270.6338 711.616,-251.9902"/><polygon fill="#000" stroke="#000" points="712.358 -248.566 701.793 -249.369 710.553 -255.329 712.358 -248.566"/></g><g id="edge52" class="edge"><title>bar.compile-&gt;bar.upstreamCompileOutput</title><path fill="none" stroke="#000" d="M2034.7813,-592.502C1884.9725,-587.2438 1485.9582,-564.2925 1405.7413,-468 1378.1321,-434.8579 1427.6297,-410.6947 1476.8342,-395.8009"/><polygon fill="#000" stroke="#000" points="1478.024 -399.1 1486.648 -392.946 1476.069 -392.379 1478.024 -399.1"/></g><g id="edge53" class="edge"><title>bar.compile-&gt;bar.allSourceFiles</title><path fill="none" stroke="#000" d="M2035.1236,-591.9114C1913.4486,-586.9487 1618.1562,-572.3617 1372.7413,-540 1364.4279,-538.9038 1355.7417,-537.55 1347.1447,-536.0809"/><polygon fill="#000" stroke="#000" points="1347.577 -532.603 1337.121 -534.312 1346.361 -539.497 1347.577 -532.603"/></g><g id="edge54" class="edge"><title>bar.compile-&gt;bar.compileClasspath</title><path fill="none" stroke="#000" d="M2069.9395,-577.3008C2057.723,-567.9434 2042.2817,-556.1161 2028.8176,-545.8031"/><polygon fill="#000" stroke="#000" points="2030.803 -542.915 2020.736 -539.613 2026.547 -548.473 2030.803 -542.915"/></g><g id="edge55" class="edge"><title>bar.compile-&gt;bar.javacOptions</title><path fill="none" stroke="#000" d="M2113.775,-577.3008C2126.2123,-567.8746 2141.9567,-555.942 2155.6342,-545.5759"/><polygon fill="#000" stroke="#000" points="2157.98 -548.19 2163.835 -539.36 2153.751 -542.611 2157.98 -548.19"/></g><g id="edge56" class="edge"><title>bar.compile-&gt;bar.scalacOptions</title><path fill="none" stroke="#000" d="M2135.4215,-582.3519C2180.0565,-570.4493 2249.7642,-551.8606 2300.0257,-538.4575"/><polygon fill="#000" stroke="#000" points="2301.045 -541.808 2309.806 -535.85 2299.241 -535.044 2301.045 -541.808"/></g><g id="edge57" class="edge"><title>bar.compile-&gt;bar.scalaCompilerClasspath</title><path fill="none" stroke="#000" d="M2144.8244,-587.3876C2240.6451,-575.4514 2444.0089,-550.1189 2567.5878,-534.725"/><polygon fill="#000" stroke="#000" points="2568.326 -538.16 2577.817 -533.451 2567.461 -531.214 2568.326 -538.16"/></g><g id="edge58" class="edge"><title>bar.compile-&gt;bar.scalacPluginClasspath</title><path fill="none" stroke="#000" d="M2148.1521,-591.0555C2268.007,-584.4984 2556.7863,-567.1023 2797.7413,-540 2807.8173,-538.8667 2818.3434,-537.53 2828.8013,-536.1053"/><polygon fill="#000" stroke="#000" points="2829.368 -539.56 2838.79 -534.716 2828.403 -532.627 2829.368 -539.56"/></g></g></svg>